<svg width="516" height="516" viewBox="0 0 516 516" xmlns="http://www.w3.org/2000/svg">
  <style>
    @media (prefers-color-scheme:dark){path{fill:#fff}}
  </style>
  <g id="favicon" stroke="none" stroke-width="1" fill="none" fill-rule="evenodd">
    <path id="Combined-Shape" style="fill:#000" d="M258 0c142.49 0 258 115.51 258 258S400.49 516 258 516 0 400.49 0 258 115.51 0 258 0Zm11.553 78.744c-18.032 0-35.489 2.869-52.373 8.606-16.883 5.737-31.841 13.974-44.873 24.71-13.031 10.737-23.44 23.77-31.226 39.096-7.786 15.326-11.68 32.66-11.68 52.003 0 14.097 2.295 26.924 6.885 38.48 4.59 11.556 11.024 21.392 19.302 29.506s18.195 14.383 29.751 18.81c11.556 4.425 24.383 6.638 38.48 6.638h7.868c3.279 0 6.803.164 10.573.492 3.77.328 7.622.86 11.556 1.598 3.934.738 7.459 1.803 10.573 3.196 3.115 1.394 5.655 3.197 7.622 5.41 1.967 2.213 2.951 4.876 2.951 7.99 0 4.59-1.393 8.115-4.18 10.574-2.787 2.458-6.188 4.303-10.204 5.532-4.016 1.23-8.237 1.967-12.663 2.213s-8.196.369-11.31.369c-16.392 0-33.07-2.172-50.037-6.516-16.965-4.344-32.415-10.696-46.348-19.056l-10.818 96.385c7.048 3.278 15.121 6.762 24.219 10.45 9.097 3.688 18.563 7.13 28.399 10.327 9.835 3.196 19.547 5.86 29.136 7.99 9.59 2.132 18.4 3.197 26.432 3.197 20.818 0 40.284-2.5 58.397-7.5 18.113-4.999 33.931-12.785 47.454-23.358 13.524-10.572 24.178-24.014 31.965-40.324 7.786-16.31 11.679-35.693 11.679-58.15 0-13.114-1.926-25.12-5.778-36.022-3.852-10.9-9.426-20.285-16.72-28.153-7.295-7.868-16.187-14.179-26.678-18.932-10.49-4.754-22.293-7.54-35.407-8.36-2.622-.164-5.983-.123-10.08.123-4.099.246-8.524.491-13.278.737-4.754.246-9.548.37-14.384.37s-9.261-.452-13.277-1.353c-4.017-.902-7.295-2.336-9.836-4.303-2.54-1.967-3.893-4.754-4.057-8.36-.164-3.114.656-5.82 2.46-8.114 1.802-2.295 4.18-4.139 7.13-5.532 2.95-1.394 6.31-2.5 10.08-3.32 3.77-.82 7.5-1.434 11.188-1.844 3.688-.41 7.213-.655 10.573-.737 3.36-.082 6.106-.123 8.237-.123 11.638 0 23.563 1.27 35.775 3.81 12.212 2.542 23.892 5.697 35.038 9.467l9.344-99.827c-7.213-3.442-14.835-6.31-22.867-8.606a240.736 240.736 0 0 0-24.711-5.655 242.217 242.217 0 0 0-25.449-3.073 369.967 369.967 0 0 0-24.833-.86Z" />
  </g>
</svg>
